Coordinates
version=1
nRows=32
nColumns=12
inDegrees=yes

Units are S.I. units (second, meters, Newtons, ...)
Angles are in degrees

endheader
time	SC_y	SC_z	SC_x	AC_y	AC_z	AC_x	GH_y	GH_z	GH_yy	EL_x	PS_y
       0.0              -46.09          16.77          77.06          48.31         -5.716        -0.1303         -62.36          74.85         -70.65          48.66          122.9
   0.00411              -46.08          16.77          77.05          48.31         -5.716        -0.1295         -62.34          74.84         -70.63          48.66          122.9
   0.00822              -46.08          16.76          77.05          48.31         -5.716        -0.1286         -62.31          74.82         -70.61          48.66          122.9
   0.01233              -46.08          16.76          77.04          48.31         -5.716        -0.1277         -62.29          74.81         -70.59          48.66          122.9
   0.01644              -46.07          16.76          77.03          48.31         -5.716        -0.1267         -62.26          74.79         -70.57          48.66          122.9
   0.02055              -46.07          16.75          77.03          48.31         -5.716        -0.1256         -62.23          74.78         -70.55          48.66          122.8
   0.02466              -46.06          16.75          77.02          48.31         -5.716        -0.1245         -62.19          74.76         -70.52          48.66          122.8
   0.02877              -46.06          16.75          77.01          48.31         -5.716        -0.1233         -62.16          74.74          -70.5          48.66          122.8
   0.03288              -46.06          16.74           77.0          48.31         -5.716         -0.122         -62.12          74.72         -70.47          48.66          122.8
   0.03699              -46.05          16.74          76.99          48.31         -5.716        -0.1206         -62.08          74.69         -70.44          48.66          122.8
    0.0411              -46.04          16.73          76.98          48.31         -5.716        -0.1191         -62.04          74.67         -70.41          48.67          122.7
   0.04521              -46.04          16.73          76.97          48.31         -5.716        -0.1175         -61.99          74.64         -70.37          48.67          122.7
   0.04932              -46.03          16.72          76.96          48.31         -5.716        -0.1158         -61.94          74.61         -70.34          48.67          122.7
   0.05343              -46.03          16.72          76.94          48.31         -5.716        -0.1139         -61.88          74.58          -70.3          48.67          122.7
   0.05754              -46.02          16.71          76.93          48.31         -5.716        -0.1119         -61.82          74.55         -70.25          48.67          122.6
   0.06165              -46.01           16.7          76.91          48.31         -5.716        -0.1097         -61.76          74.51         -70.21          48.67          122.6
   0.06576               -46.0          16.69           76.9          48.32         -5.716        -0.1073         -61.69          74.47         -70.16          48.67          122.6
   0.06987              -45.99          16.68          76.88          48.32         -5.715        -0.1047         -61.61          74.43          -70.1          48.67          122.5
   0.07398              -45.98          16.68          76.86          48.32         -5.715        -0.1018         -61.53          74.38         -70.04          48.67          122.5
   0.07809              -45.97          16.66          76.83          48.32         -5.715       -0.09873         -61.44          74.33         -69.97          48.68          122.4
    0.0822              -45.96          16.65          76.81          48.32         -5.715       -0.09532         -61.34          74.28          -69.9          48.68          122.4
   0.08631              -45.94          16.64          76.78          48.32         -5.715       -0.09157         -61.23          74.21         -69.82          48.68          122.3
   0.09042              -45.93          16.63          76.75          48.32         -5.715       -0.08742         -61.11          74.15         -69.73          48.68          122.2
   0.09453              -45.91          16.61          76.72          48.33         -5.715       -0.08282         -60.98          74.07         -69.63          48.68          122.2
   0.09864              -45.89          16.59          76.68          48.33         -5.714       -0.07771         -60.83          73.99         -69.52          48.69          122.1
    0.1027              -45.87          16.58          76.64          48.33         -5.714       -0.07201         -60.66          73.89          -69.4          48.69          122.0
    0.1069              -45.84          16.55           76.6          48.34         -5.714       -0.06563         -60.47          73.79         -69.27          48.69          121.9
     0.111              -45.82          16.53          76.55          48.34         -5.714       -0.05844         -60.26          73.67         -69.11           48.7          121.8
    0.1151              -45.79           16.5          76.49          48.34         -5.713       -0.05032         -60.03          73.53         -68.94           48.7          121.7
    0.1192              -45.75          16.47          76.42          48.35         -5.713       -0.04111         -59.76          73.38         -68.74          48.71          121.5
    0.1233              -45.71          16.44          76.35          48.35         -5.713       -0.03059         -59.45          73.21         -68.52          48.71          121.3
    0.1274              -45.67           16.4          76.26          48.36         -5.712       -0.01852          -59.1          73.01         -68.26          48.72          121.2
